<?xml version="1.0" standalone="no"?>
<!DOCTYPE svg PUBLIC "-//W3C//DTD SVG 20010904//EN"
 "http://www.w3.org/TR/2001/REC-SVG-20010904/DTD/svg10.dtd">
<svg version="1.0" xmlns="http://www.w3.org/2000/svg"
 width="2084.000000pt" height="2084.000000pt" viewBox="0 0 2084.000000 2084.000000"
 preserveAspectRatio="xMidYMid meet">
<metadata>
Created by potrace 1.16, written by Peter Selinger 2001-2019
</metadata>
<g transform="translate(0.000000,2084.000000) scale(0.100000,-0.100000)"
fill="#000000" stroke="none">
<path d="M0 10420 l0 -10420 10420 0 10420 0 0 10420 0 10420 -10420 0 -10420
0 0 -10420z m17710 8572 c154 -41 271 -110 387 -229 l71 -74 21 27 c22 27 71
170 71 205 0 17 7 19 65 19 l65 0 0 -550 0 -550 -65 0 c-59 0 -65 2 -69 23
-68 324 -154 513 -296 656 -120 122 -238 168 -397 158 -179 -11 -325 -122
-428 -327 -206 -412 -206 -1258 0 -1670 103 -205 249 -316 429 -327 149 -10
264 35 379 146 111 107 177 215 240 397 19 54 42 135 52 179 9 44 19 88 22 98
3 14 16 17 69 17 l64 0 0 -550 0 -550 -65 0 c-58 0 -65 2 -65 19 0 38 -51 181
-74 207 l-22 27 -44 -52 c-97 -115 -275 -221 -435 -258 -120 -27 -342 -25
-455 5 -722 193 -1117 1201 -820 2093 156 471 487 797 885 875 98 19 316 11
415 -14z m-13112 -374 c7 -178 12 -347 12 -375 l0 -53 -65 0 c-59 0 -65 2 -70
23 -3 12 -14 63 -24 113 -54 255 -134 303 -494 304 l-179 0 5 -1032 c5 -1072
6 -1101 48 -1198 38 -89 99 -126 224 -137 l75 -6 0 -83 0 -84 -655 0 -655 0 0
84 0 83 74 6 c176 15 231 79 256 298 6 49 10 504 10 1078 l0 993 -202 -4
c-236 -6 -285 -17 -353 -79 -53 -49 -81 -112 -109 -248 l-22 -106 -64 -3 c-34
-2 -66 1 -70 5 -5 6 23 721 29 741 1 1 500 2 1109 2 l1108 0 12 -322z m6212
298 c326 -77 543 -280 621 -581 30 -115 37 -331 14 -450 -72 -382 -351 -634
-760 -684 -49 -6 -161 -11 -249 -11 l-159 0 6 -322 c6 -351 15 -424 62 -504
33 -57 83 -82 191 -96 l84 -12 0 -83 0 -83 -655 0 -655 0 0 83 0 83 91 11 c49
7 104 20 121 30 49 28 86 82 105 153 17 60 18 136 18 1065 0 929 -1 1005 -18
1065 -19 71 -56 125 -105 153 -17 10 -72 23 -121 30 l-91 11 0 83 0 84 713 -4
c640 -3 720 -5 787 -21z m6600 -6021 c50 -53 230 -50 -2999 -52 -6063 -4
-10337 -11 -10731 -18 l-405 -8 -24 27 c-24 25 -24 26 -6 46 18 20 32 20 869
22 468 2 3646 4 7063 4 l6212 1 21 -22z m-117 -225 c21 0 27 -5 27 -21 0 -15
-14 -27 -56 -46 l-56 -26 -292 13 c-288 13 -1298 8 -1806 -8 -113 -4 -621 -3
-1130 2 -1406 14 -4084 13 -4385 -1 -185 -9 -488 -10 -1170 -3 -2581 24 -4283
32 -4659 23 -378 -10 -392 -10 -419 9 -15 11 -27 23 -27 27 0 31 48 31 3202
31 1733 -1 3153 2 3157 5 3 4 1712 4 3796 1 2085 -4 3802 -7 3818 -6z m-6758
-1926 c2410 -9 2296 -8 2341 -31 48 -25 105 -86 134 -142 12 -25 40 -54 70
-74 86 -58 70 -61 -319 -67 -303 -5 -339 -7 -371 -24 -39 -20 -90 -65 -90 -78
0 -5 32 -24 71 -42 l71 -33 -45 -12 c-51 -12 -112 -14 -180 -5 l-46 7 14 35
c15 35 20 119 9 160 -5 17 -14 22 -39 22 -29 0 -33 -4 -39 -34 -4 -19 -6 -62
-5 -95 2 -71 -10 -91 -56 -91 -18 0 -58 -12 -90 -26 -74 -34 -105 -29 -245 41
l-109 55 -10 53 c-5 28 -11 59 -13 68 -3 15 -8 14 -57 -4 -29 -11 -69 -36 -89
-54 -32 -31 -34 -36 -29 -77 9 -64 3 -66 -180 -85 -78 -8 -105 -7 -170 9 -43
10 -116 21 -163 25 -47 3 -123 11 -170 16 -80 10 -87 12 -127 51 -23 22 -44
51 -47 64 -4 13 -13 24 -22 24 -20 0 -74 -28 -74 -39 0 -4 -12 -21 -26 -36
-25 -27 -27 -27 -104 -21 -57 5 -105 2 -172 -10 -77 -14 -126 -16 -286 -11
-140 5 -199 4 -215 -5 -14 -7 -67 -11 -148 -9 -117 2 -129 0 -176 -23 -66 -34
-210 -67 -291 -69 -68 -1 -92 14 -92 54 0 10 -5 41 -11 69 -9 42 -14 50 -34
50 -18 0 -25 -8 -34 -42 -6 -24 -21 -56 -35 -73 -24 -30 -25 -30 -145 -34
-114 -3 -123 -2 -167 23 -74 41 -153 50 -428 48 l-248 -1 -34 36 c-32 34 -36
35 -81 29 -27 -4 -192 -7 -368 -8 l-320 -1 -93 31 c-87 30 -102 32 -240 32
-221 1 -278 10 -352 56 -60 37 -65 38 -175 43 -62 4 -117 9 -120 13 -10 10
-35 117 -35 151 0 20 8 32 33 47 28 17 50 20 164 20 79 0 133 4 135 10 4 13
2761 31 3278 22 195 -4 598 -7 895 -8z m1297 -1095 c52 -27 54 -35 10 -64
l-38 -25 -1594 10 c-3249 22 -3782 29 -3808 55 -18 18 55 23 461 34 243 7 483
13 532 15 50 1 1060 1 2245 -2 2072 -5 2156 -5 2192 -23z m-3279 -913 c18 -7
50 -28 72 -46 36 -29 45 -31 87 -27 25 3 70 18 100 33 45 24 65 28 133 28 51
0 107 -8 155 -22 69 -19 101 -21 415 -23 323 -2 348 0 500 24 321 52 432 56
735 28 64 -6 123 -6 179 2 77 11 84 10 97 -8 8 -10 14 -43 15 -74 1 -116 26
-488 33 -500 19 -30 28 18 42 220 9 134 20 232 31 263 l16 50 18 -45 c14 -36
18 -74 18 -201 1 -176 9 -214 44 -204 12 4 38 10 59 13 31 5 38 2 49 -18 7
-13 16 -49 19 -79 l5 -55 52 0 c36 0 58 -5 69 -17 28 -28 3 -47 -69 -50 l-62
-3 0 -55 0 -55 88 -3 c48 -1 87 -7 87 -12 0 -5 5 -42 10 -83 19 -134 -20 -190
-133 -193 -84 -3 -82 -2 -65 -21 27 -32 51 -143 51 -243 1 -124 -9 -145 -93
-188 -84 -44 -129 -40 -179 14 l-34 36 -86 -33 c-113 -43 -182 -48 -686 -49
-220 0 -503 -6 -630 -13 -394 -21 -1187 -5 -1425 29 -62 9 -128 12 -162 9 -70
-8 -76 0 -58 84 10 50 10 62 -4 87 -32 59 -33 60 -55 33 -17 -20 -20 -39 -21
-105 0 -49 -5 -87 -13 -98 -12 -17 -14 -17 -35 1 l-23 18 16 135 c9 74 25 198
35 275 16 112 20 199 21 440 1 339 6 403 36 442 23 31 25 31 103 10 76 -20 84
-12 75 75 -6 62 -4 70 17 91 16 16 41 26 75 31 28 3 62 15 76 26 14 11 36 24
49 29 35 14 114 13 151 -3z m2062 -1708 c1163 3 1202 3 1260 -16 l60 -20 -36
-15 c-41 -18 -365 -41 -814 -57 -255 -9 -2846 -26 -3270 -22 -88 1 -302 9
-475 17 -173 8 -346 17 -385 19 -38 1 -205 -3 -370 -11 -165 -7 -514 -18 -775
-24 -261 -6 -531 -14 -599 -17 l-124 -7 -19 30 c-17 28 -17 31 0 47 14 14 58
20 242 32 506 35 1292 50 1480 28 120 -15 340 -15 495 -1 170 16 1190 28 1700
20 237 -3 970 -5 1630 -3z m222 -718 l552 3 12 -27 c11 -23 9 -29 -11 -51 -13
-14 -31 -25 -39 -25 -42 0 -151 -127 -151 -176 0 -65 70 -44 119 36 17 27 37
50 45 50 8 0 26 -15 40 -32 15 -18 31 -39 37 -45 18 -23 36 -14 60 31 21 41
22 48 10 81 -18 51 -6 135 19 135 20 0 42 -56 58 -149 12 -66 1 -111 -38 -154
-24 -28 -38 -33 -110 -43 -114 -16 -221 -71 -322 -163 -47 -44 -85 -71 -99
-71 -14 0 -41 21 -76 60 -75 82 -153 118 -383 176 -178 45 -191 47 -335 48
-133 1 -157 -2 -215 -22 -116 -42 -343 -154 -402 -199 -31 -24 -64 -43 -74
-43 -10 0 -90 39 -178 87 -88 48 -205 102 -260 122 -89 30 -116 35 -227 39
-150 5 -301 -10 -416 -44 -102 -29 -158 -57 -242 -119 -35 -26 -76 -51 -91
-55 -38 -11 -86 9 -150 61 -64 51 -155 95 -230 109 -29 6 -124 10 -212 10
-133 0 -168 3 -215 20 -111 39 -159 26 -278 -74 -90 -76 -109 -86 -148 -79
-34 7 -187 158 -187 184 0 34 43 33 110 -1 34 -17 65 -28 69 -25 8 9 8 212 -1
220 -4 4 -32 -3 -62 -16 l-55 -22 -92 27 c-51 16 -95 24 -100 19 -11 -11 -14
-117 -4 -170 7 -39 6 -43 -18 -54 -38 -17 -57 -6 -57 35 0 19 -12 71 -26 116
-44 141 -30 159 131 161 55 0 154 4 220 8 107 7 124 6 163 -12 36 -16 42 -22
35 -41 -11 -32 -7 -63 19 -146 22 -68 26 -75 52 -78 37 -5 42 6 51 95 6 63 4
78 -13 107 l-20 34 39 28 39 27 179 -7 c124 -5 191 -4 221 4 50 13 83 7 110
-20 20 -20 20 -20 63 2 41 23 51 23 457 29 228 3 789 4 1245 1 457 -2 1078 -3
1382 -2z m901 -150 c25 -146 25 -150 -34 -150 -47 0 -58 20 -49 88 4 31 8 71
9 87 3 35 16 96 23 108 15 26 31 -15 51 -133z m-5809 104 c87 -6 107 -10 130
-30 24 -20 26 -29 26 -96 -1 -69 -3 -77 -45 -147 -48 -78 -77 -105 -104 -95
-23 9 -20 51 8 98 48 82 39 164 -21 199 -36 20 -58 17 -91 -14 -33 -30 -28
-70 13 -112 32 -33 34 -39 24 -59 -15 -29 -118 -148 -128 -148 -13 0 -32 75
-52 204 -24 155 -24 162 7 193 23 22 31 25 77 19 29 -3 99 -8 156 -12z m1841
-486 c163 -86 258 -147 267 -171 4 -12 8 -1276 8 -2809 l0 -2788 -317 0 -316
0 34 67 c52 104 67 191 61 347 -4 99 -12 156 -32 231 -55 203 -58 225 -58 375
0 80 7 199 17 265 9 66 21 176 26 245 10 116 22 1209 37 3377 l6 873 25 16
c68 44 115 39 242 -28z m-1214 33 c56 -11 131 -33 167 -49 114 -52 103 214 97
-2207 -3 -1160 -5 -2433 -5 -2828 l0 -717 -226 0 -226 0 -6 547 c-7 545 5
1859 23 2678 13 620 12 1239 -5 1635 -26 608 -17 890 27 937 26 28 28 28 154
4z m2624 -50 c92 -50 251 -166 271 -198 l22 -36 4 -1336 c2 -735 8 -1741 13
-2236 6 -495 10 -1135 10 -1422 l0 -523 -450 0 -450 0 0 41 c0 22 5 49 11 61
11 20 12 19 44 -12 l34 -33 25 29 c32 36 30 58 -24 192 l-40 97 31 142 c17 79
29 154 25 167 -3 13 -26 46 -51 74 l-45 50 -2 129 c-3 127 -3 129 24 161 28
34 42 73 54 155 6 44 4 52 -26 94 -45 62 -52 102 -34 193 8 44 14 134 14 220
-1 163 25 586 41 670 30 162 30 180 8 370 -20 175 -21 213 -14 700 l7 515 -27
119 c-25 111 -26 125 -15 194 17 107 33 144 89 212 28 34 51 64 51 68 0 18
-42 72 -75 98 -35 27 -37 30 -33 76 4 38 13 56 46 92 67 72 68 117 5 187 l-37
41 18 61 c9 34 35 161 57 282 21 121 44 244 50 273 l11 54 166 -4 c115 -2 175
-8 192 -17z m-3271 -61 c23 -23 47 -53 53 -68 9 -20 13 -727 18 -2767 3 -1507
4 -2765 1 -2795 l-6 -55 -112 -3 -111 -3 -6 53 c-19 184 -31 3181 -15 3663 9
273 9 433 -1 730 -14 448 -1 1215 22 1243 16 19 66 41 94 42 12 0 40 -18 63
-40z m4716 -5 c143 -42 297 -109 320 -139 19 -26 20 -41 19 -314 -1 -158 -3
-1400 -5 -2759 l-3 -2473 -376 0 -375 0 -4 824 c-2 534 1 982 10 1272 10 369
10 484 0 653 -18 285 -23 626 -14 886 6 150 4 336 -5 585 -9 249 -11 462 -6
670 10 417 10 548 0 667 -10 120 -18 112 129 136 140 22 211 21 310 -8z"/>
<path d="M10280 18066 l0 -586 63 0 c161 0 278 39 358 119 92 92 131 203 145
401 12 187 -24 370 -96 477 -76 115 -178 163 -357 171 l-113 5 0 -587z"/>
<path d="M5862 5357 c-21 -22 -22 -35 -28 -303 l-7 -280 28 -18 c28 -19 29
-19 47 4 16 20 18 35 12 134 -3 61 -12 147 -20 192 -19 107 -18 120 10 181 21
45 23 56 13 83 -14 36 -26 38 -55 7z"/>
</g>
</svg>
