<?xml version="1.0" standalone="no"?>
<!DOCTYPE svg PUBLIC "-//W3C//DTD SVG 20010904//EN"
 "http://www.w3.org/TR/2001/REC-SVG-20010904/DTD/svg10.dtd">
<svg version="1.0" xmlns="http://www.w3.org/2000/svg"
 width="300.000000pt" height="300.000000pt" viewBox="0 0 300.000000 300.000000"
 preserveAspectRatio="xMidYMid meet">
<metadata>
Created by potrace 1.10, written by Peter Selinger 2001-2011
</metadata>
<g transform="translate(0.000000,300.000000) scale(0.100000,-0.100000)"
fill="#000000" stroke="none">
<path d="M979 2996 c-2 -2 -4 -213 -3 -467 1 -255 -1 -471 -4 -481 -4 -17 -33
-18 -483 -18 -308 0 -480 -4 -484 -10 -4 -7 163 -10 494 -10 l501 0 0 495 c0
437 -3 509 -21 491z"/>
<path d="M2000 2501 l0 -501 -500 0 -500 0 0 -60 0 -60 500 0 499 0 3 63 3 62
498 3 c320 1 497 6 497 12 0 6 -171 10 -485 10 l-485 0 -2 118 c-1 64 -3 281
-4 481 -1 266 -4 366 -12 369 -9 3 -12 -123 -12 -497z m-30 -555 c0 -27 -5
-35 -23 -40 -30 -7 -867 -7 -896 1 -15 4 -21 13 -21 32 0 15 3 31 7 34 3 4
215 7 470 7 l463 0 0 -34z"/>
<path d="M2455 2764 c-51 -19 -81 -48 -112 -109 -84 -165 12 -388 167 -387 27
1 59 6 71 12 11 7 32 9 45 6 50 -13 80 89 51 174 -19 55 -48 52 -92 -9 -41
-57 -57 -62 -81 -26 -25 38 -24 168 1 195 28 31 51 25 77 -22 32 -58 52 -68
79 -42 30 31 34 145 6 181 -13 16 -26 23 -39 20 -11 -3 -38 1 -60 9 -49 17
-62 17 -113 -2z m140 -54 l23 -22 7 21 c14 44 25 18 25 -59 0 -64 -3 -80 -15
-80 -9 0 -15 9 -15 23 0 12 -9 37 -20 54 -37 61 -108 53 -137 -15 -22 -51 -21
-177 1 -224 40 -83 128 -65 153 31 5 19 14 36 21 39 9 3 12 -20 12 -82 0 -82
-11 -110 -25 -65 -6 19 -8 19 -25 4 -52 -47 -138 -37 -193 24 -45 50 -60 98
-55 181 4 81 43 152 98 182 45 25 112 19 145 -12z"/>
<path d="M345 2754 c-16 -8 -33 -21 -37 -27 -13 -21 -9 -92 8 -115 17 -25 52
-29 60 -7 4 8 12 15 20 15 21 0 19 -227 -1 -254 -19 -26 -19 -51 1 -70 12 -12
36 -16 102 -16 89 0 97 2 120 32 12 15 11 22 -7 47 -18 25 -21 43 -21 146 0
64 3 115 8 113 4 -2 19 -10 34 -17 41 -21 68 6 68 68 -1 86 -32 101 -203 101
-91 0 -130 -4 -152 -16z m315 -56 c0 -18 3 -43 6 -55 5 -17 2 -23 -10 -23 -9
0 -16 8 -16 18 0 28 -20 42 -60 42 l-36 0 3 -131 c2 -71 3 -146 3 -164 0 -29
4 -36 25 -41 14 -3 25 -11 25 -18 0 -14 -193 -13 -197 1 -2 6 8 13 22 17 l25
6 0 143 c0 78 3 152 6 165 6 20 3 22 -36 22 -37 0 -43 -3 -53 -30 -6 -16 -18
-30 -25 -30 -9 0 -12 6 -8 16 3 9 6 33 6 55 l0 39 160 0 160 0 0 -32z"/>
<path d="M1331 2734 l-20 -26 22 -30 c20 -27 22 -41 21 -157 0 -103 -3 -134
-17 -154 -39 -60 -6 -87 104 -87 71 0 79 2 98 26 l20 26 -20 28 c-31 41 -22
69 28 89 53 20 101 63 109 97 4 14 4 51 1 81 -11 101 -64 133 -222 133 -99 0
-104 -1 -124 -26z m242 -18 c46 -19 69 -49 74 -99 10 -82 -42 -140 -123 -140
l-45 0 3 -61 c3 -52 6 -62 26 -71 46 -20 22 -30 -73 -30 -95 0 -119 10 -72 30
22 10 22 13 22 175 0 162 0 165 -22 175 -13 5 -23 15 -23 22 0 18 190 18 233
-1z"/>
<path d="M1480 2602 l0 -89 25 5 c35 6 55 39 55 88 0 43 -17 66 -57 78 -23 7
-23 6 -23 -82z"/>
<path d="M452 1850 c3 -21 5 -21 1026 -20 562 0 1022 -3 1022 -7 0 -5 -9 -14
-20 -21 -11 -7 -20 -19 -20 -27 0 -13 -117 -15 -971 -15 -533 0 -968 4 -965 8
5 8 649 13 1596 12 183 0 330 4 326 8 -4 4 -450 7 -990 7 l-982 0 28 -27 c21
-21 28 -38 30 -70 l1 -43 4 38 4 37 172 1 c95 0 382 1 640 0 325 0 467 3 467
11 0 7 4 7 13 0 8 -7 98 -10 247 -10 129 0 263 0 298 -1 l62 -1 0 -70 c0 -60
-3 -70 -17 -70 -10 0 -436 -1 -948 -3 l-930 -2 -6 30 c-6 29 -7 29 -8 -7 -1
-31 3 -38 18 -38 20 0 31 -18 31 -50 0 -24 54 -86 91 -105 18 -10 26 -21 23
-32 -12 -48 -18 -48 506 -51 303 -2 490 -7 490 -12 0 -6 -21 -10 -47 -10 -305
1 -883 -6 -883 -10 0 -3 9 -11 20 -18 17 -10 20 -23 20 -78 0 -41 4 -63 10
-59 5 3 10 29 10 57 0 44 2 49 15 38 12 -10 15 -10 15 4 0 25 20 19 21 -6 0
-22 1 -22 11 2 11 24 12 24 18 -15 l7 -40 2 38 c0 22 6 37 14 38 6 0 22 2 35
3 12 2 27 -3 32 -9 8 -10 20 -9 52 2 32 11 44 11 46 3 3 -9 7 -9 12 1 7 10 63
12 262 11 139 -1 268 -2 285 -2 26 0 34 -5 39 -25 3 -14 10 -25 15 -25 5 0 10
-37 11 -82 l2 -83 6 90 c6 94 13 99 10 7 -1 -46 1 -53 22 -61 l23 -9 -25 -10
-25 -11 25 -2 c14 -1 28 -1 33 0 4 0 7 -4 7 -9 0 -6 7 -10 16 -10 8 0 13 -4
10 -9 -3 -5 14 -11 39 -13 51 -4 47 5 -9 24 -22 7 -48 25 -58 39 -17 22 -18
33 -10 78 9 49 8 52 -9 48 -26 -7 -34 9 -12 22 16 9 16 10 -5 11 -13 0 -34 11
-48 25 -24 24 -24 26 -8 50 13 20 24 25 59 25 83 0 116 28 79 65 -22 21 -17
24 52 31 86 9 107 25 102 80 l-3 44 200 -2 200 -3 -2 -29 c-3 -34 -34 -69 -83
-94 -22 -10 -39 -28 -45 -47 -5 -16 -17 -35 -26 -42 -8 -6 -28 -30 -43 -52
-27 -39 -29 -47 -29 -150 0 -60 4 -114 7 -120 4 -6 21 -17 37 -24 l30 -12 -32
-35 c-21 -22 -36 -52 -41 -80 -5 -25 -7 -162 -5 -305 3 -168 2 -207 -2 -110
l-7 150 -3 -175 c-1 -96 -5 -230 -7 -297 -3 -76 0 -124 6 -128 7 -4 10 42 10
135 0 92 4 139 10 135 6 -4 10 6 11 22 0 15 1 156 2 313 2 157 6 291 10 298 5
6 17 12 27 12 13 0 17 5 14 15 -4 10 3 18 21 25 19 7 26 16 23 33 -2 18 -11
23 -43 27 l-40 5 -3 95 c-4 119 3 157 28 165 11 4 20 15 20 25 0 12 8 20 23
22 18 2 22 10 23 37 0 31 4 36 38 47 50 18 105 85 106 129 0 11 8 25 19 32 16
10 18 23 16 92 -2 64 0 81 11 81 8 0 14 6 14 13 0 7 11 28 25 47 26 35 32 60
15 60 -5 0 -10 -6 -10 -12 0 -10 -211 -14 -1014 -16 -558 -2 -1021 0 -1028 5
-8 5 20 10 72 14 l85 5 -88 2 c-84 2 -88 1 -85 -18z m1502 -309 c11 -13 21
-32 21 -42 3 -40 -43 -43 -580 -44 -456 0 -513 2 -542 17 -18 9 -50 19 -73 23
-22 4 -40 12 -40 18 0 16 38 39 50 32 6 -4 10 -2 10 4 0 12 190 16 760 16
l375 0 19 -24z m-1228 -6 c1 -11 2 -25 3 -31 0 -7 32 -24 70 -40 38 -16 67
-32 65 -36 -6 -9 -135 -11 -158 -2 -12 5 -15 15 -10 45 6 37 5 40 -27 53 -18
8 -39 12 -46 9 -7 -3 -13 -1 -13 5 0 14 12 17 68 17 40 0 47 -3 48 -20z m-94
-27 c11 9 19 8 36 -4 22 -15 30 -44 12 -44 -5 0 -10 7 -10 15 0 8 -4 15 -10
15 -5 0 -10 -7 -10 -15 0 -8 -4 -15 -10 -15 -5 0 -10 8 -10 17 0 9 -3 13 -7
10 -9 -10 -34 13 -27 25 4 6 10 5 14 -3 7 -10 12 -10 22 -1z m1172 -115 c51
-8 44 -20 -16 -29 -91 -12 -975 -7 -983 7 -8 12 -51 12 -75 -1 -20 -11 -36 2
-25 20 7 11 1033 14 1099 3z m-44 -233 c0 -16 -4 -30 -10 -30 -5 0 -10 14 -10
30 0 17 5 30 10 30 6 0 10 -13 10 -30z"/>
<path d="M1133 1130 c0 -41 2 -58 4 -37 2 20 2 54 0 75 -2 20 -4 3 -4 -38z"/>
<path d="M1688 1149 c-1 -28 0 -53 5 -56 4 -2 7 21 7 51 0 70 -7 73 -12 5z"/>
<path d="M801 1068 l-1 -58 70 0 c78 0 96 17 24 22 -35 2 -50 8 -58 23 -6 11
-14 22 -17 25 -4 3 -9 14 -12 25 -2 11 -5 -6 -6 -37z"/>
<path d="M1456 1028 c-76 -4 -141 -9 -144 -13 -8 -8 243 -5 276 4 50 14 7 17
-132 9z"/>
<path d="M728 1019 c-10 -5 -18 -17 -18 -25 0 -12 4 -12 25 3 37 27 31 45 -7
22z"/>
<path d="M1158 1023 c17 -2 47 -2 65 0 17 2 3 4 -33 4 -36 0 -50 -2 -32 -4z"/>
<path d="M1879 996 c-2 -2 -47 -6 -99 -7 -52 -2 -99 -5 -105 -8 -5 -3 -210 -6
-455 -8 -245 -1 -458 -2 -473 -2 l-28 -1 31 -30 c17 -16 35 -30 40 -30 5 0 11
-8 13 -17 4 -16 5 -16 6 -1 1 15 42 16 479 20 308 2 483 0 495 -7 9 -5 17 -18
17 -28 0 -14 4 -16 19 -7 11 5 37 11 58 11 l38 2 -45 6 c-42 6 -110 45 -110
62 0 5 17 11 38 14 77 13 92 17 97 26 6 9 -8 13 -16 5z m-156 -53 c-4 -12
-953 -15 -953 -3 0 6 121 11 348 12 427 4 608 1 605 -9z"/>
<path d="M950 865 c0 -8 -6 -15 -12 -16 -7 0 -4 -4 7 -9 29 -13 41 -12 27 2
-17 17 -15 31 3 24 8 -3 15 -1 15 4 0 6 -9 10 -20 10 -11 0 -20 -7 -20 -15z"/>
<path d="M1255 855 c-5 -2 -22 -6 -37 -9 -59 -13 -58 -6 -57 -374 1 -289 11
-544 18 -447 l2 30 13 -30 c12 -28 13 -24 14 55 1 46 7 89 12 94 14 14 12 26
-5 26 -8 0 -15 -6 -16 -12 -1 -7 -5 -2 -9 12 -12 36 -12 600 -1 600 25 0 36
-59 14 -75 -11 -8 -12 -23 -5 -75 5 -36 10 -55 11 -43 0 12 5 25 11 28 6 4 5
13 -2 25 -10 15 -10 27 0 53 17 47 15 77 -5 94 -12 10 -13 13 -4 11 8 -3 23 4
33 14 17 17 20 17 68 -1 56 -21 70 -8 15 15 -34 14 -50 16 -70 9z"/>
<path d="M1410 841 l-35 -18 -3 -412 -2 -411 24 0 c21 0 25 6 30 47 3 27 4 73
1 103 -2 30 -7 194 -9 363 l-5 308 24 9 c27 10 42 30 23 30 -7 0 -29 -8 -48
-19z"/>
<path d="M1484 843 c0 -11 8 -18 21 -18 11 -1 30 -4 43 -9 16 -5 22 -4 22 8 0
9 -15 19 -37 25 -49 14 -49 14 -49 -6z"/>
<path d="M1814 841 l-30 -18 -3 -394 c-1 -217 1 -402 4 -411 20 -52 25 27 25
391 l0 399 28 18 c15 11 43 22 62 25 34 6 34 6 -10 8 -28 0 -56 -6 -76 -18z"/>
<path d="M878 836 c-16 -12 -17 -33 -13 -232 2 -120 4 -306 5 -411 0 -125 4
-193 10 -193 7 0 9 36 6 103 -2 58 0 107 6 114 5 7 7 17 3 24 -9 14 -11 181
-2 196 3 5 4 13 1 15 -3 3 -7 78 -9 167 -3 144 -2 161 13 161 13 0 13 2 -4 14
-17 13 -17 15 -2 21 20 8 32 35 15 35 -7 0 -20 -7 -29 -14z"/>
<path d="M1002 838 c-6 -8 -13 -170 -17 -425 -7 -384 -6 -413 10 -413 15 0 16
19 14 231 -3 189 -1 232 11 239 10 6 11 12 2 22 -7 9 -11 66 -10 172 2 174 2
173 67 174 19 0 43 -4 53 -9 11 -6 18 -6 18 0 0 14 -27 21 -85 21 -30 0 -57
-5 -63 -12z"/>
<path d="M1619 835 c-15 -8 -29 -20 -31 -27 -3 -7 -6 -192 -7 -410 -2 -361 0
-398 14 -398 34 0 41 22 40 131 -1 85 1 106 12 102 7 -3 13 0 13 6 0 7 -7 14
-15 17 -18 7 -20 43 -2 49 16 7 18 65 2 65 -9 0 -12 12 -8 40 4 28 2 40 -7 40
-8 0 -10 9 -5 27 3 15 8 55 11 90 4 51 2 62 -10 57 -10 -4 -12 1 -9 20 3 16
10 23 19 19 16 -6 19 13 4 22 -5 3 -10 26 -10 50 0 34 5 47 20 55 11 6 20 20
20 32 0 19 4 20 50 15 31 -4 48 -2 45 3 -9 15 -117 11 -146 -5z"/>
<path d="M1068 742 c-2 -37 0 -83 3 -102 4 -21 7 7 8 68 1 115 -6 138 -11 34z"/>
<path d="M1951 415 c0 -232 4 -392 9 -380 5 11 9 182 9 380 0 198 -4 369 -9
380 -5 12 -9 -148 -9 -380z"/>
<path d="M807 403 c1 -218 5 -399 8 -401 3 -3 5 175 5 396 0 221 -4 402 -8
402 -5 0 -7 -178 -5 -397z"/>
<path d="M1925 415 c0 -215 1 -301 2 -192 2 109 2 285 0 390 -1 106 -2 17 -2
-198z"/>
<path d="M1064 325 c0 -82 2 -115 3 -72 2 43 2 110 0 150 -1 40 -3 5 -3 -78z"/>
<path d="M1237 370 c-4 -30 -6 -77 -6 -105 1 -33 5 -18 10 45 10 104 6 148 -4
60z"/>
<path d="M1463 350 c0 -41 2 -58 4 -37 2 20 2 54 0 75 -2 20 -4 3 -4 -38z"/>
<path d="M2160 132 c0 -77 4 -132 9 -132 11 0 7 247 -3 257 -3 4 -6 -53 -6
-125z"/>
<path d="M1064 72 c1 -47 3 -58 10 -43 5 13 5 37 -1 63 -10 43 -10 43 -9 -20z"/>
</g>
</svg>
