<?xml version="1.0" encoding="UTF-8"?>
<svg id="Capa_1" data-name="Capa 1" xmlns="http://www.w3.org/2000/svg" viewBox="0 0 76.58 92.65">
  <defs>
    <style>
      .cls-1 {
        fill: #fff;
      }
    </style>
  </defs>
  <path class="cls-1" d="m38.35,92.65c-1.03-1.08-1.91-1.94-2.7-2.89-.24-.28-.27-.8-.27-1.21,0-12.32,0-24.64,0-36.96,0-2.69.05-5.37-.03-8.06-.17-5.82-5.68-10.37-11.29-9.44-.89.15-1.21.46-1.21,1.41.04,9.14.03,18.28.03,27.42,0,4.26,0,8.52,0,12.78,0,.33,0,.66,0,1.27-1.41-1.41-2.54-2.71-3.86-3.79-1.62-1.33-2.07-2.91-2.05-4.98.1-10.34.05-20.69.05-31.03,0-.36,0-.72,0-1.25-1.27.32-2.39.61-3.52.9-1.97.52-2.43.4-3.13-.85-.77-1.37-.53-3.14.63-4.14.41-.35.92-.65,1.44-.78,7.87-2.11,15.74-4.19,23.61-6.28,2.11-.56,4.16-.12,6.2.43,7.42,1.98,14.85,3.94,22.27,5.92,1.79.48,2.67,1.57,2.64,3.2-.04,1.99-1.54,3.16-3.45,2.67-1.3-.33-2.6-.68-4.07-1.07,0,.58,0,.97,0,1.36,0,10.99-.01,21.99,0,32.98,0,.64-.19,1.1-.64,1.54-1.66,1.64-3.3,3.31-4.94,4.97-.09-.03-.18-.05-.27-.08,0-.69,0-1.37,0-2.06,0-12.97,0-25.94.02-38.91,0-1.44.02-1.44-1.42-1.65-5.63-.84-11.02,3.74-11.14,9.51-.07,3.49-.02,6.98-.02,10.47,0,11.46,0,22.91.01,34.37,0,.8-.19,1.4-.79,1.95-.7.64-1.31,1.39-2.11,2.26Z"/>
  <path class="cls-1" d="m76.58,13c.02,1.25-.46,2.29-1.38,3.12-.77.69-1.59.96-2.7.66-10.54-2.84-21.1-5.62-31.66-8.4-1.77-.47-3.54-.42-5.31.05-10.61,2.81-21.23,5.63-31.85,8.42-.41.11-.93.06-1.31-.11C.79,16.06-.1,14.48,0,12.69c.11-1.81,1.17-3.21,2.96-3.73,2.13-.62,4.29-1.16,6.43-1.73C17.96,4.97,26.52,2.72,35.07.43c2.21-.59,4.35-.56,6.56.04,9.38,2.53,18.78,4.98,28.18,7.47,1.25.33,2.51.64,3.75,1.01,1.94.58,3,2.03,3.02,4.05Z"/>
  <path class="cls-1" d="m38.63,13.05c1.63.39,3.58.81,5.51,1.32,7.58,1.99,15.15,4.01,22.73,6.01,2.57.68,3.65,3.51,2.07,5.51-.7.88-1.54,1.3-2.75.97-6.07-1.65-12.16-3.24-18.25-4.85-2.36-.62-4.71-1.26-7.07-1.88-1.74-.46-3.48-.45-5.22.01-8.35,2.21-16.7,4.42-25.05,6.63-1.34.36-2.05.04-2.7-1.19-1.15-2.17-.04-4.68,2.38-5.33,5.42-1.45,10.85-2.88,16.28-4.32,3.13-.83,6.26-1.67,9.4-2.47.74-.19,1.52-.24,2.65-.41Z"/>
</svg>