<?xml version="1.0" encoding="utf-8"?>
<!-- Generator: Adobe Illustrator 27.3.1, SVG Export Plug-In . SVG Version: 6.00 Build 0)  -->
<svg version="1.1" id="Capa_1" xmlns="http://www.w3.org/2000/svg" xmlns:xlink="http://www.w3.org/1999/xlink" x="0px" y="0px"
	 viewBox="0 0 100 100" style="enable-background:new 0 0 100 100;" xml:space="preserve">
<style type="text/css">
	.st0{fill:#2B4360;}
	.st1{fill:#FFFFFF;}
</style>
<rect class="st0" width="100" height="100"/>
<g>
	<path class="st1" d="M50,84.8c-0.8-0.8-1.4-1.5-2-2.2c-0.2-0.2-0.2-0.6-0.2-0.9c0-9.2,0-18.5,0-27.8c0-2,0-4,0-6
		c-0.1-4.4-4.3-7.8-8.5-7.1c-0.7,0.1-0.9,0.3-0.9,1.1c0,6.9,0,13.7,0,20.6c0,3.2,0,6.4,0,9.6c0,0.2,0,0.5,0,1
		c-1.1-1.1-1.9-2-2.9-2.8c-1.2-1-1.6-2.2-1.5-3.7c0.1-7.8,0-15.5,0-23.3c0-0.3,0-0.5,0-0.9c-1,0.2-1.8,0.5-2.6,0.7
		c-1.5,0.4-1.8,0.3-2.3-0.6c-0.6-1-0.4-2.4,0.5-3.1c0.3-0.3,0.7-0.5,1.1-0.6c5.9-1.6,11.8-3.1,17.7-4.7c1.6-0.4,3.1-0.1,4.7,0.3
		c5.6,1.5,11.1,3,16.7,4.4c1.3,0.4,2,1.2,2,2.4c0,1.5-1.2,2.4-2.6,2c-1-0.3-1.9-0.5-3.1-0.8c0,0.4,0,0.7,0,1c0,8.3,0,16.5,0,24.8
		c0,0.5-0.1,0.8-0.5,1.2c-1.2,1.2-2.5,2.5-3.7,3.7c-0.1,0-0.1,0-0.2-0.1c0-0.5,0-1,0-1.5c0-9.7,0-19.5,0-29.2c0-1.1,0-1.1-1.1-1.2
		c-4.2-0.6-8.3,2.8-8.4,7.1c-0.1,2.6,0,5.2,0,7.9c0,8.6,0,17.2,0,25.8c0,0.6-0.1,1-0.6,1.5C51.1,83.6,50.6,84.1,50,84.8L50,84.8z"/>
	<path class="st1" d="M78.7,25c0,0.9-0.3,1.7-1,2.3c-0.6,0.5-1.2,0.7-2,0.5c-7.9-2.1-15.8-4.2-23.8-6.3c-1.3-0.3-2.7-0.3-4,0
		C40,23.7,32,25.8,24,27.9c-0.3,0.1-0.7,0-1-0.1c-1.2-0.5-1.9-1.7-1.8-3c0.1-1.4,0.9-2.4,2.2-2.8c1.6-0.5,3.2-0.9,4.8-1.3
		c6.4-1.7,12.9-3.4,19.3-5.1c1.7-0.4,3.3-0.4,4.9,0c7,1.9,14.1,3.7,21.2,5.6c0.9,0.2,1.9,0.5,2.8,0.8C77.9,22.4,78.7,23.4,78.7,25
		L78.7,25z"/>
	<path class="st1" d="M50.3,25c1.2,0.3,2.7,0.6,4.1,1c5.7,1.5,11.4,3,17.1,4.5c1.9,0.5,2.7,2.6,1.6,4.1c-0.5,0.7-1.2,1-2.1,0.7
		c-4.6-1.2-9.1-2.4-13.7-3.6c-1.8-0.5-3.5-0.9-5.3-1.4c-1.3-0.3-2.6-0.3-3.9,0c-6.3,1.7-12.5,3.3-18.8,5c-1,0.3-1.5,0-2-0.9
		c-0.9-1.6,0-3.5,1.8-4c4.1-1.1,8.1-2.2,12.2-3.2c2.3-0.6,4.7-1.3,7.1-1.9C48.8,25.2,49.4,25.1,50.3,25L50.3,25z"/>
</g>
</svg>
