<?xml version="1.0" encoding="utf-8"?>
<!-- Generator: Adobe Illustrator 27.3.1, SVG Export Plug-In . SVG Version: 6.00 Build 0)  -->
<svg version="1.1" id="Capa_1" xmlns="http://www.w3.org/2000/svg" xmlns:xlink="http://www.w3.org/1999/xlink" x="0px" y="0px"
	 viewBox="0 0 100 100" style="enable-background:new 0 0 100 100;" xml:space="preserve">
<style type="text/css">
	.st0{fill:#2B4360;}
	.st1{fill:#FFFFFF;}
</style>
<rect class="st0" width="100" height="100"/>
<g>
	<path class="st1" d="M50.1,88.4c-0.9-0.9-1.6-1.6-2.2-2.4c-0.2-0.2-0.2-0.7-0.2-1c0-10.2,0-20.4,0-30.6c0-2.2,0-4.5,0-6.7
		c-0.1-4.8-4.7-8.6-9.4-7.8c-0.7,0.1-1,0.4-1,1.2c0,7.6,0,15.1,0,22.7c0,3.5,0,7.1,0,10.6c0,0.3,0,0.5,0,1.1
		c-1.2-1.2-2.1-2.2-3.2-3.1c-1.3-1.1-1.7-2.4-1.7-4.1c0.1-8.6,0-17.1,0-25.7c0-0.3,0-0.6,0-1c-1,0.3-2,0.5-2.9,0.7
		c-1.6,0.4-2,0.3-2.6-0.7c-0.6-1.1-0.4-2.6,0.5-3.4c0.3-0.3,0.8-0.5,1.2-0.6c6.5-1.7,13-3.5,19.6-5.2c1.8-0.5,3.4-0.1,5.1,0.4
		c6.1,1.6,12.3,3.3,18.4,4.9c1.5,0.4,2.2,1.3,2.2,2.7c0,1.6-1.3,2.6-2.9,2.2c-1.1-0.3-2.1-0.6-3.4-0.9c0,0.5,0,0.8,0,1.1
		c0,9.1,0,18.2,0,27.3c0,0.5-0.2,0.9-0.5,1.3c-1.4,1.4-2.7,2.7-4.1,4.1c-0.1,0-0.1,0-0.2-0.1c0-0.6,0-1.1,0-1.7
		c0-10.7,0-21.5,0-32.2c0-1.2,0-1.2-1.2-1.4c-4.7-0.7-9.1,3.1-9.2,7.9c-0.1,2.9,0,5.8,0,8.7c0,9.5,0,19,0,28.5
		c0,0.7-0.2,1.2-0.7,1.6C51.2,87,50.7,87.7,50.1,88.4L50.1,88.4z"/>
	<path class="st1" d="M81.7,22.4c0,1-0.4,1.9-1.1,2.6c-0.6,0.6-1.3,0.8-2.2,0.5c-8.7-2.4-17.5-4.7-26.2-7c-1.5-0.4-2.9-0.3-4.4,0
		c-8.8,2.3-17.6,4.7-26.4,7c-0.3,0.1-0.8,0-1.1-0.1c-1.3-0.6-2-1.9-2-3.4c0.1-1.5,1-2.7,2.5-3.1c1.8-0.5,3.5-1,5.3-1.4
		c7.1-1.9,14.2-3.7,21.3-5.6c1.8-0.5,3.6-0.5,5.4,0c7.8,2.1,15.6,4.1,23.3,6.2c1,0.3,2.1,0.5,3.1,0.8C80.8,19.5,81.7,20.7,81.7,22.4
		L81.7,22.4z"/>
	<path class="st1" d="M50.3,22.4c1.4,0.3,3,0.7,4.6,1.1c6.3,1.6,12.5,3.3,18.8,5c2.1,0.6,3,2.9,1.7,4.6c-0.6,0.7-1.3,1.1-2.3,0.8
		c-5-1.4-10.1-2.7-15.1-4c-2-0.5-3.9-1-5.9-1.6c-1.4-0.4-2.9-0.4-4.3,0C40.9,30.1,34,32,27.1,33.8c-1.1,0.3-1.7,0-2.2-1
		c-1-1.8,0-3.9,2-4.4c4.5-1.2,9-2.4,13.5-3.6c2.6-0.7,5.2-1.4,7.8-2C48.7,22.6,49.4,22.6,50.3,22.4L50.3,22.4z"/>
</g>
</svg>
